<?xml version="1.0" encoding="UTF-8" standalone="no"?>
<!-- Created with Inkscape (http://www.inkscape.org/) -->

<svg
   xmlns:dc="http://purl.org/dc/elements/1.1/"
   xmlns:cc="http://creativecommons.org/ns#"
   xmlns:rdf="http://www.w3.org/1999/02/22-rdf-syntax-ns#"
   xmlns:svg="http://www.w3.org/2000/svg"
   xmlns="http://www.w3.org/2000/svg"
   xmlns:sodipodi="http://sodipodi.sourceforge.net/DTD/sodipodi-0.dtd"
   xmlns:inkscape="http://www.inkscape.org/namespaces/inkscape"
   width="331.91092mm"
   height="42.651711mm"
   viewBox="0 0 331.91092 42.651711"
   version="1.1"
   id="svg5252"
   inkscape:version="0.92.1 r15371"
   sodipodi:docname="dariovarotto-white.svg"
   inkscape:export-filename="/home/dario/Desktop/dariovarotto.png"
   inkscape:export-xdpi="61.220001"
   inkscape:export-ydpi="61.220001">
  <defs
     id="defs5246" />
  <sodipodi:namedview
     id="base"
     pagecolor="#ffffff"
     bordercolor="#666666"
     borderopacity="1.0"
     inkscape:pageopacity="0.0"
     inkscape:pageshadow="2"
     inkscape:zoom="0.35"
     inkscape:cx="690.09041"
     inkscape:cy="486.31596"
     inkscape:document-units="mm"
     inkscape:current-layer="layer1"
     showgrid="false"
     fit-margin-top="0"
     fit-margin-left="0"
     fit-margin-right="0"
     fit-margin-bottom="0"
     inkscape:window-width="1920"
     inkscape:window-height="1028"
     inkscape:window-x="0"
     inkscape:window-y="0"
     inkscape:window-maximized="1" />
  <metadata
     id="metadata5249">
    <rdf:RDF>
      <cc:Work
         rdf:about="">
        <dc:format>image/svg+xml</dc:format>
        <dc:type
           rdf:resource="http://purl.org/dc/dcmitype/StillImage" />
        <dc:title></dc:title>
      </cc:Work>
    </rdf:RDF>
  </metadata>
  <g
     inkscape:label="Layer 1"
     inkscape:groupmode="layer"
     id="layer1"
     transform="translate(255.15785,-234.85272)">
    <g
       transform="translate(224.06689,-256.64696)"
       id="g5223"
       style="fill:#f9f9f9">
      <path
         d="m -426.08296,515.34728 c -7.47183,0.80945 -7.78316,0.87171 -10.52283,1.55663 -6.91145,1.74343 -10.46057,4.79443 -10.46057,8.9662 0,4.4831 4.04724,7.72089 9.58885,7.72089 4.17178,0 7.22278,-1.30757 11.39455,-4.79442 1.18304,3.36232 3.30006,4.79442 6.97371,4.79442 2.61514,0 4.6699,-0.74718 6.41332,-2.42834 l -1.18304,-1.6189 c -1.05851,0.93398 -1.74342,1.24531 -2.80193,1.24531 -1.30757,0 -2.42835,-0.68492 -2.92647,-1.74343 -0.43586,-0.87171 -0.56039,-1.68116 -0.56039,-4.35857 v -13.20024 c 0,-3.73592 -0.99624,-5.66614 -3.54912,-7.09824 -2.30381,-1.30757 -5.54161,-2.11702 -8.40581,-2.11702 -2.67741,0 -6.03973,0.74718 -8.53035,1.80569 -2.92646,1.30757 -5.04348,3.92272 -5.04348,6.102 0,1.49437 1.36983,2.73967 2.98873,2.73967 1.74343,0 3.17553,-1.4321 3.17553,-3.17553 l -0.0623,-1.74342 c 0,-1.8057 2.80194,-3.2378 6.2888,-3.2378 4.42083,0 7.22277,2.17929 7.22277,5.60388 z m 0,10.64736 c -3.48686,3.30006 -6.102,4.60763 -9.21526,4.60763 -2.98873,0 -5.41708,-2.36608 -5.41708,-5.35481 0,-4.17178 5.23028,-6.91145 14.63234,-7.7209 z"
         style="font-style:normal;font-variant:normal;font-weight:normal;font-stretch:normal;font-size:62.26527786px;line-height:125%;font-family:'URW Bookman L';-inkscape-font-specification:'URW Bookman L, Normal';font-variant-ligatures:normal;font-variant-caps:normal;font-variant-numeric:normal;font-feature-settings:normal;text-align:center;letter-spacing:0px;word-spacing:0px;writing-mode:lr-tb;text-anchor:middle;fill:#f9f9f9;fill-opacity:1;stroke:none;stroke-width:2.22378993px;stroke-linecap:butt;stroke-linejoin:miter;stroke-opacity:1"
         id="path5081"
         inkscape:connector-curvature="0" />
      <path
         d="m -406.71257,502.83196 h -2.11702 c -3.86045,0.74718 -5.9152,0.99624 -9.40206,1.2453 v 1.86796 l 1.49437,0.12453 c 3.17553,0.24906 4.10951,1.4321 4.10951,5.16802 v 14.63234 c 0,3.42459 -1.12078,4.85669 -3.86045,5.16802 l -1.55663,0.12453 v 1.86796 h 16.74936 v -1.86796 l -1.55664,-0.12453 c -2.73967,-0.31133 -3.86044,-1.74343 -3.86044,-5.16802 v -15.25499 c 2.24155,-2.49061 3.92271,-3.48686 5.7284,-3.48686 1.05851,0 1.49437,0.1868 2.61514,0.93398 1.05851,0.80945 2.05476,1.12078 3.17553,1.12078 2.05476,0 3.54912,-1.43211 3.54912,-3.42459 0,-2.05476 -1.86795,-3.48686 -4.54536,-3.48686 -1.4321,0 -2.92647,0.31133 -4.42084,0.99624 -1.49436,0.62266 -1.80569,0.87172 -4.79442,3.42459 -0.1868,0.1868 -0.68492,0.62266 -1.30757,1.12078 z"
         style="font-style:normal;font-variant:normal;font-weight:normal;font-stretch:normal;font-size:62.26527786px;line-height:125%;font-family:'URW Bookman L';-inkscape-font-specification:'URW Bookman L, Normal';font-variant-ligatures:normal;font-variant-caps:normal;font-variant-numeric:normal;font-feature-settings:normal;text-align:center;letter-spacing:0px;word-spacing:0px;writing-mode:lr-tb;text-anchor:middle;fill:#f9f9f9;fill-opacity:1;stroke:none;stroke-width:2.22378993px;stroke-linecap:butt;stroke-linejoin:miter;stroke-opacity:1"
         id="path5083"
         inkscape:connector-curvature="0" />
      <path
         d="m -379.00753,502.83196 h -2.11702 c -3.79818,0.68492 -5.85293,0.99624 -9.15299,1.2453 v 1.86796 l 1.2453,0.12453 c 3.2378,0.31133 4.10951,1.4321 4.10951,5.16802 v 14.63234 c 0,3.42459 -1.12077,4.85669 -3.86045,5.16802 l -1.55663,0.12453 v 1.86796 h 16.6871 v -1.86796 l -1.49437,-0.12453 c -2.80194,-0.31133 -3.86045,-1.74343 -3.86045,-5.16802 z m -2.8642,-10.52283 c -2.11702,0 -3.79818,1.68116 -3.79818,3.73591 0,2.11702 1.68116,3.79818 3.73591,3.79818 2.11702,0 3.79819,-1.68116 3.79819,-3.73591 0,-2.05476 -1.68117,-3.79818 -3.73592,-3.79818 z"
         style="font-style:normal;font-variant:normal;font-weight:normal;font-stretch:normal;font-size:62.26527786px;line-height:125%;font-family:'URW Bookman L';-inkscape-font-specification:'URW Bookman L, Normal';font-variant-ligatures:normal;font-variant-caps:normal;font-variant-numeric:normal;font-feature-settings:normal;text-align:center;letter-spacing:0px;word-spacing:0px;writing-mode:lr-tb;text-anchor:middle;fill:#f9f9f9;fill-opacity:1;stroke:none;stroke-width:2.22378993px;stroke-linecap:butt;stroke-linejoin:miter;stroke-opacity:1"
         id="path5085"
         inkscape:connector-curvature="0" />
      <path
         d="m -360.24741,502.27157 c -4.35857,0 -8.21901,1.49437 -10.70962,4.04724 -2.61515,2.73968 -4.35857,7.34731 -4.35857,11.70588 0,9.40205 6.03973,15.56631 15.31726,15.56631 9.02846,0 15.13046,-6.22652 15.13046,-15.44178 0,-4.04725 -1.4321,-8.15676 -3.73592,-11.02096 -2.61514,-3.11326 -6.78691,-4.85669 -11.64361,-4.85669 z m 0.0623,2.49061 c 5.60387,0 8.9662,5.16802 8.9662,13.69836 0,7.90769 -3.23779,12.63985 -8.71714,12.63985 -5.7284,0 -9.02846,-4.79442 -9.02846,-13.20024 0,-7.96995 3.48685,-13.13797 8.7794,-13.13797 z"
         style="font-style:normal;font-variant:normal;font-weight:normal;font-stretch:normal;font-size:62.26527786px;line-height:125%;font-family:'URW Bookman L';-inkscape-font-specification:'URW Bookman L, Normal';font-variant-ligatures:normal;font-variant-caps:normal;font-variant-numeric:normal;font-feature-settings:normal;text-align:center;letter-spacing:0px;word-spacing:0px;writing-mode:lr-tb;text-anchor:middle;fill:#f9f9f9;fill-opacity:1;stroke:none;stroke-width:2.22378993px;stroke-linecap:butt;stroke-linejoin:miter;stroke-opacity:1"
         id="path5087"
         inkscape:connector-curvature="0" />
      <path
         d="m -281.01932,515.34728 c -7.47183,0.80945 -7.78316,0.87171 -10.52283,1.55663 -6.91144,1.74343 -10.46056,4.79443 -10.46056,8.9662 0,4.4831 4.04724,7.72089 9.58885,7.72089 4.17177,0 7.22277,-1.30757 11.39454,-4.79442 1.18304,3.36232 3.30006,4.79442 6.97372,4.79442 2.61514,0 4.66989,-0.74718 6.41332,-2.42834 l -1.18304,-1.6189 c -1.05851,0.93398 -1.74343,1.24531 -2.80194,1.24531 -1.30757,0 -2.42834,-0.68492 -2.92647,-1.74343 -0.43585,-0.87171 -0.56038,-1.68116 -0.56038,-4.35857 v -13.20024 c 0,-3.73592 -0.99625,-5.66614 -3.54913,-7.09824 -2.30381,-1.30757 -5.5416,-2.11702 -8.40581,-2.11702 -2.6774,0 -6.03973,0.74718 -8.53034,1.80569 -2.92647,1.30757 -5.04349,3.92272 -5.04349,6.102 0,1.49437 1.36984,2.73967 2.98874,2.73967 1.74342,0 3.17552,-1.4321 3.17552,-3.17553 l -0.0623,-1.74342 c 0,-1.8057 2.80194,-3.2378 6.28879,-3.2378 4.42084,0 7.22277,2.17929 7.22277,5.60388 z m 0,10.64736 c -3.48685,3.30006 -6.10199,4.60763 -9.21526,4.60763 -2.98873,0 -5.41708,-2.36608 -5.41708,-5.35481 0,-4.17178 5.23029,-6.91145 14.63234,-7.7209 z"
         style="font-style:normal;font-variant:normal;font-weight:normal;font-stretch:normal;font-size:62.26527786px;line-height:125%;font-family:'URW Bookman L';-inkscape-font-specification:'URW Bookman L, Normal';font-variant-ligatures:normal;font-variant-caps:normal;font-variant-numeric:normal;font-feature-settings:normal;text-align:center;letter-spacing:0px;word-spacing:0px;writing-mode:lr-tb;text-anchor:middle;fill:#f9f9f9;fill-opacity:1;stroke:none;stroke-width:2.22378993px;stroke-linecap:butt;stroke-linejoin:miter;stroke-opacity:1"
         id="path5093"
         inkscape:connector-curvature="0" />
      <path
         d="m -262.1781,502.83196 h -2.11702 c -3.86045,0.74718 -5.9152,0.99624 -9.40205,1.2453 v 1.86796 l 1.49436,0.12453 c 3.17553,0.24906 4.10951,1.4321 4.10951,5.16802 v 14.63234 c 0,3.42459 -1.12077,4.85669 -3.86045,5.16802 l -1.55663,0.12453 v 1.86796 h 16.74936 v -1.86796 l -1.55663,-0.12453 c -2.73967,-0.31133 -3.86045,-1.74343 -3.86045,-5.16802 v -15.25499 c 2.24155,-2.49061 3.92271,-3.48686 5.72841,-3.48686 1.05851,0 1.49436,0.1868 2.61514,0.93398 1.05851,0.80945 2.05475,1.12078 3.17553,1.12078 2.05475,0 3.54912,-1.43211 3.54912,-3.42459 0,-2.05476 -1.86796,-3.48686 -4.54537,-3.48686 -1.4321,0 -2.92646,0.31133 -4.42083,0.99624 -1.49437,0.62266 -1.80569,0.87172 -4.79443,3.42459 -0.18679,0.1868 -0.68492,0.62266 -1.30757,1.12078 z"
         style="font-style:normal;font-variant:normal;font-weight:normal;font-stretch:normal;font-size:62.26527786px;line-height:125%;font-family:'URW Bookman L';-inkscape-font-specification:'URW Bookman L, Normal';font-variant-ligatures:normal;font-variant-caps:normal;font-variant-numeric:normal;font-feature-settings:normal;text-align:center;letter-spacing:0px;word-spacing:0px;writing-mode:lr-tb;text-anchor:middle;fill:#f9f9f9;fill-opacity:1;stroke:none;stroke-width:2.22378993px;stroke-linecap:butt;stroke-linejoin:miter;stroke-opacity:1"
         id="path5095"
         inkscape:connector-curvature="0" />
      <path
         d="m -233.912,502.27157 c -4.35857,0 -8.21902,1.49437 -10.70963,4.04724 -2.61514,2.73968 -4.35857,7.34731 -4.35857,11.70588 0,9.40205 6.03973,15.56631 15.31726,15.56631 9.02846,0 15.13046,-6.22652 15.13046,-15.44178 0,-4.04725 -1.4321,-8.15676 -3.73592,-11.02096 -2.61514,-3.11326 -6.78691,-4.85669 -11.6436,-4.85669 z m 0.0623,2.49061 c 5.60388,0 8.9662,5.16802 8.9662,13.69836 0,7.90769 -3.23779,12.63985 -8.71714,12.63985 -5.7284,0 -9.02846,-4.79442 -9.02846,-13.20024 0,-7.96995 3.48685,-13.13797 8.7794,-13.13797 z"
         style="font-style:normal;font-variant:normal;font-weight:normal;font-stretch:normal;font-size:62.26527786px;line-height:125%;font-family:'URW Bookman L';-inkscape-font-specification:'URW Bookman L, Normal';font-variant-ligatures:normal;font-variant-caps:normal;font-variant-numeric:normal;font-feature-settings:normal;text-align:center;letter-spacing:0px;word-spacing:0px;writing-mode:lr-tb;text-anchor:middle;fill:#f9f9f9;fill-opacity:1;stroke:none;stroke-width:2.22378993px;stroke-linecap:butt;stroke-linejoin:miter;stroke-opacity:1"
         id="path5097"
         inkscape:connector-curvature="0" />
      <path
         d="m -199.8492,502.83196 h -8.90394 v -11.33228 h -2.36608 c 0.0623,7.65863 -2.6774,11.08322 -8.7794,11.33228 v 2.05475 h 5.23028 v 20.85887 c 0,3.051 0.87172,4.98122 2.86421,6.22653 1.61889,0.99624 3.86044,1.61889 6.03973,1.61889 3.67365,0 6.53785,-1.4321 8.7794,-4.35856 l -1.68116,-1.36984 c -2.11702,2.42834 -3.54912,3.23779 -5.41708,3.23779 -3.17553,0 -4.6699,-2.55287 -4.6699,-8.21901 v -17.99467 h 8.90394 z"
         style="font-style:normal;font-variant:normal;font-weight:normal;font-stretch:normal;font-size:62.26527786px;line-height:125%;font-family:'URW Bookman L';-inkscape-font-specification:'URW Bookman L, Normal';font-variant-ligatures:normal;font-variant-caps:normal;font-variant-numeric:normal;font-feature-settings:normal;text-align:center;letter-spacing:0px;word-spacing:0px;writing-mode:lr-tb;text-anchor:middle;fill:#f9f9f9;fill-opacity:1;stroke:none;stroke-width:2.22378993px;stroke-linecap:butt;stroke-linejoin:miter;stroke-opacity:1"
         id="path5099"
         inkscape:connector-curvature="0" />
      <path
         d="m -178.25156,502.83196 h -8.90393 v -11.33228 h -2.36608 c 0.0623,7.65863 -2.67741,11.08322 -8.77941,11.33228 v 2.05475 h 5.23029 v 20.85887 c 0,3.051 0.87171,4.98122 2.8642,6.22653 1.6189,0.99624 3.86045,1.61889 6.03973,1.61889 3.67365,0 6.53786,-1.4321 8.77941,-4.35856 l -1.68117,-1.36984 c -2.11702,2.42834 -3.54912,3.23779 -5.41708,3.23779 -3.17552,0 -4.66989,-2.55287 -4.66989,-8.21901 v -17.99467 h 8.90393 z"
         style="font-style:normal;font-variant:normal;font-weight:normal;font-stretch:normal;font-size:62.26527786px;line-height:125%;font-family:'URW Bookman L';-inkscape-font-specification:'URW Bookman L, Normal';font-variant-ligatures:normal;font-variant-caps:normal;font-variant-numeric:normal;font-feature-settings:normal;text-align:center;letter-spacing:0px;word-spacing:0px;writing-mode:lr-tb;text-anchor:middle;fill:#f9f9f9;fill-opacity:1;stroke:none;stroke-width:2.22378993px;stroke-linecap:butt;stroke-linejoin:miter;stroke-opacity:1"
         id="path5101"
         inkscape:connector-curvature="0" />
      <path
         d="m -162.69333,502.27157 c -4.35857,0 -8.21902,1.49437 -10.70963,4.04724 -2.61514,2.73968 -4.35857,7.34731 -4.35857,11.70588 0,9.40205 6.03973,15.56631 15.31726,15.56631 9.02846,0 15.13046,-6.22652 15.13046,-15.44178 0,-4.04725 -1.4321,-8.15676 -3.73592,-11.02096 -2.61514,-3.11326 -6.78691,-4.85669 -11.6436,-4.85669 z m 0.0623,2.49061 c 5.60388,0 8.9662,5.16802 8.9662,13.69836 0,7.90769 -3.23779,12.63985 -8.71714,12.63985 -5.7284,0 -9.02846,-4.79442 -9.02846,-13.20024 0,-7.96995 3.48685,-13.13797 8.7794,-13.13797 z"
         style="font-style:normal;font-variant:normal;font-weight:normal;font-stretch:normal;font-size:62.26527786px;line-height:125%;font-family:'URW Bookman L';-inkscape-font-specification:'URW Bookman L, Normal';font-variant-ligatures:normal;font-variant-caps:normal;font-variant-numeric:normal;font-feature-settings:normal;text-align:center;letter-spacing:0px;word-spacing:0px;writing-mode:lr-tb;text-anchor:middle;fill:#f9f9f9;fill-opacity:1;stroke:none;stroke-width:2.22378993px;stroke-linecap:butt;stroke-linejoin:miter;stroke-opacity:1"
         id="path5103"
         inkscape:connector-curvature="0" />
      <path
         d="m -455.19035,503.23506 c -4.11827,-0.036 -6.53785,-0.65423 -10.33603,-0.65423 -7.78316,0 -13.69836,6.78692 -13.69836,15.75312 0,3.86044 1.30757,8.03222 3.42459,10.83415 2.17928,2.92647 5.97746,4.73216 9.83791,4.73216 1.8712,-0.0294 7.55909,-0.37019 10.77189,-0.56038 h 10.46057 v -1.86796 l -0.74718,-0.12453 c -2.8642,-0.62265 -3.79818,-1.86796 -3.79818,-5.16802 v -34.3087 h -2.49062 c -3.11326,1.24531 -4.54536,1.6189 -8.7794,2.11702 v 1.93023 l 1.30757,0.12453 c 3.36233,0.31132 4.04724,3.79871 4.04724,3.79871 z m 0,22.75751 c -2.80193,3.42459 -5.47934,4.91896 -8.9662,4.91896 -3.11326,0 -5.7284,-1.68116 -7.03597,-4.54536 -1.05851,-2.24155 -1.68116,-5.29255 -1.68116,-8.15676 0,-2.80193 0.62265,-5.7284 1.61889,-7.96995 1.4321,-3.17553 4.04725,-4.85669 7.59637,-4.85669 2.98873,0 5.10575,0.93398 8.46807,3.73591 z"
         style="font-style:normal;font-variant:normal;font-weight:normal;font-stretch:normal;font-size:62.26527786px;line-height:125%;font-family:'URW Bookman L';-inkscape-font-specification:'URW Bookman L, Normal';font-variant-ligatures:normal;font-variant-caps:normal;font-variant-numeric:normal;font-feature-settings:normal;text-align:center;letter-spacing:0px;word-spacing:0px;writing-mode:lr-tb;text-anchor:middle;fill:#f9f9f9;fill-opacity:1;stroke:none;stroke-width:2.22378993px;stroke-linecap:butt;stroke-linejoin:miter;stroke-opacity:1"
         id="path5124"
         inkscape:connector-curvature="0"
         sodipodi:nodetypes="cssccccccscccccsccscscscc" />
      <path
         inkscape:connector-curvature="0"
         id="path5150"
         style="font-style:normal;font-variant:normal;font-weight:normal;font-stretch:normal;font-size:62.26527786px;line-height:125%;font-family:'URW Bookman L';-inkscape-font-specification:'URW Bookman L, Normal';font-variant-ligatures:normal;font-variant-caps:normal;font-variant-numeric:normal;font-feature-settings:normal;text-align:center;letter-spacing:0px;word-spacing:0px;writing-mode:lr-tb;text-anchor:middle;fill:#f9f9f9;fill-opacity:1;stroke:none;stroke-width:2.22378993px;stroke-linecap:butt;stroke-linejoin:miter;stroke-opacity:1"
         d="m -315.5664,528.67204 -7.03597,-18.49278 c -0.60775,-2.42459 -1.08801,-4.08663 0.31167,-4.23404 0.12453,0 0.56039,-0.0623 1.05851,-0.12453 v -1.86796 h -13.07606 v 1.93022 c 2.80194,0.43586 3.67366,1.12078 5.10576,4.29631 l 9.90018,23.97213 h 3.67365 l 9.52659,-22.04191 c 1.68116,-3.67365 3.54912,-5.47935 6.47558,-6.16426 v -1.99249 h -17.58914 v 1.86796 c 2.98873,0.43585 8.74747,1.2453 8.74747,3.17552 0,0.62266 -0.24906,1.68117 -0.62265,2.61515 z"
         sodipodi:nodetypes="cccccccccccccccscc" />
    </g>
  </g>
</svg>
